<svg xmlns="http://www.w3.org/2000/svg" viewBox="0 0 100 100" width="100" height="100" role="img" aria-label="Reeve mark (reversed on terracotta)">
  <title>Reeve — the Break (reversed on terracotta)</title>
  <desc>Reversed variant for use on Terracotta (#C8553D) surfaces. Snow nodes and lines; Eclipse highlight.</desc>
  <g stroke="#EBE4D7" stroke-width="1.4" stroke-linecap="round" fill="none">
    <line x1="20" y1="20" x2="50" y2="20"/>
    <line x1="50" y1="20" x2="80" y2="20"/>
    <line x1="20" y1="50" x2="50" y2="50"/>
    <line x1="50" y1="50" x2="80" y2="50"/>
    <line x1="20" y1="80" x2="50" y2="80"/>
    <line x1="50" y1="80" x2="80" y2="80"/>
    <line x1="20" y1="20" x2="20" y2="50"/>
    <line x1="20" y1="50" x2="20" y2="80"/>
    <line x1="80" y1="20" x2="80" y2="50"/>
    <line x1="80" y1="50" x2="80" y2="80"/>
    <line x1="50" y1="50" x2="50" y2="80"/>
  </g>
  <g fill="#EBE4D7">
    <circle cx="20" cy="20" r="4"/>
    <circle cx="80" cy="20" r="4"/>
    <circle cx="20" cy="50" r="4"/>
    <circle cx="50" cy="50" r="4"/>
    <circle cx="80" cy="50" r="4"/>
    <circle cx="20" cy="80" r="4"/>
    <circle cx="50" cy="80" r="4"/>
    <circle cx="80" cy="80" r="4"/>
  </g>
  <circle cx="50" cy="20" r="6.5" fill="#121214"/>
</svg>
