<svg xmlns="http://www.w3.org/2000/svg" viewBox="0 0 220 60" width="220" height="60" role="img" aria-label="Reeve horizontal lockup (dark)">
  <title>Reeve — horizontal lockup (dark)</title>
  <desc>For use on Eclipse (#121214). Mark scaled 0.45 to sit within R cap-to-baseline height in Lora 50/500.</desc>
  <style>@import url('https://fonts.googleapis.com/css2?family=Lora:wght@500&amp;display=swap');</style>
  <g transform="translate(0 15) scale(0.45)">
    <g stroke="#FCFCFC" stroke-width="1.4" stroke-linecap="round" fill="none">
      <line x1="20" y1="20" x2="50" y2="20"/>
      <line x1="50" y1="20" x2="80" y2="20"/>
      <line x1="20" y1="50" x2="50" y2="50"/>
      <line x1="50" y1="50" x2="80" y2="50"/>
      <line x1="20" y1="80" x2="50" y2="80"/>
      <line x1="50" y1="80" x2="80" y2="80"/>
      <line x1="20" y1="20" x2="20" y2="50"/>
      <line x1="20" y1="50" x2="20" y2="80"/>
      <line x1="80" y1="20" x2="80" y2="50"/>
      <line x1="80" y1="50" x2="80" y2="80"/>
      <line x1="50" y1="50" x2="50" y2="80"/>
    </g>
    <g fill="#FCFCFC">
      <circle cx="20" cy="20" r="4"/>
      <circle cx="80" cy="20" r="4"/>
      <circle cx="20" cy="50" r="4"/>
      <circle cx="50" cy="50" r="4"/>
      <circle cx="80" cy="50" r="4"/>
      <circle cx="20" cy="80" r="4"/>
      <circle cx="50" cy="80" r="4"/>
      <circle cx="80" cy="80" r="4"/>
    </g>
    <circle cx="50" cy="20" r="6.5" fill="#C8553D"/>
  </g>
  <text x="48" y="54" font-family="Lora, Georgia, 'Times New Roman', serif" font-weight="500" font-size="50" letter-spacing="-1.1" fill="#FCFCFC">Reeve</text>
</svg>
